<svg xmlns="http://www.w3.org/2000/svg" width="899" height="400"><rect width="899" height="400" x="0" y="0" fill="#FFFFFF" id="background"/><g transform="translate(70,20)" id="viz"><g id="axis"><g transform="translate(0,330)" fill="none" font-size="10" font-family="sans-serif" text-anchor="middle"><path class="domain" stroke="currentColor" d="M0.5,6V0.5H630.5V6"/><g class="tick" opacity="1" transform="translate(0.5,0)"><line stroke="currentColor" y2="6"/><text fill="currentColor" y="9" dy="0.71em">19</text></g><g class="tick" opacity="1" transform="translate(70.5,0)"><line stroke="currentColor" y2="6"/><text fill="currentColor" y="9" dy="0.71em">20</text></g><g class="tick" opacity="1" transform="translate(140.5,0)"><line stroke="currentColor" y2="6"/><text fill="currentColor" y="9" dy="0.71em">21</text></g><g class="tick" opacity="1" transform="translate(210.5,0)"><line stroke="currentColor" y2="6"/><text fill="currentColor" y="9" dy="0.71em">22</text></g><g class="tick" opacity="1" transform="translate(280.5,0)"><line stroke="currentColor" y2="6"/><text fill="currentColor" y="9" dy="0.71em">23</text></g><g class="tick" opacity="1" transform="translate(350.5,0)"><line stroke="currentColor" y2="6"/><text fill="currentColor" y="9" dy="0.71em">24</text></g><g class="tick" opacity="1" transform="translate(420.5,0)"><line stroke="currentColor" y2="6"/><text fill="currentColor" y="9" dy="0.71em">25</text></g><g class="tick" opacity="1" transform="translate(490.5,0)"><line stroke="currentColor" y2="6"/><text fill="currentColor" y="9" dy="0.71em">26</text></g><g class="tick" opacity="1" transform="translate(560.5,0)"><line stroke="currentColor" y2="6"/><text fill="currentColor" y="9" dy="0.71em">27</text></g><g class="tick" opacity="1" transform="translate(630.5,0)"><line stroke="currentColor" y2="6"/><text fill="currentColor" y="9" dy="0.71em">28</text></g><text x="630" dy="-5" text-anchor="end" style="font-family: Arial, sans-serif; font-size: 12px; fill: rgb(123, 123, 123); font-weight: bold;">edad</text></g><g fill="none" font-size="10" font-family="sans-serif" text-anchor="end"><path class="domain" stroke="currentColor" d="M0.5,0.5V330.5"/><g class="tick" opacity="1" transform="translate(0,42.5)"><line stroke="currentColor" x2="630" style="stroke: rgb(204, 204, 204);"/><text fill="currentColor" x="-3" dy="0.32em">A22</text></g><g class="tick" opacity="1" transform="translate(0,124.5)"><line stroke="currentColor" x2="630" style="stroke: rgb(204, 204, 204);"/><text fill="currentColor" x="-3" dy="0.32em">IN23</text></g><g class="tick" opacity="1" transform="translate(0,206.5)"><line stroke="currentColor" x2="630" style="stroke: rgb(204, 204, 204);"/><text fill="currentColor" x="-3" dy="0.32em">L20</text></g><g class="tick" opacity="1" transform="translate(0,288.5)"><line stroke="currentColor" x2="630" style="stroke: rgb(204, 204, 204);"/><text fill="currentColor" x="-3" dy="0.32em">S10-Rev23</text></g><text x="4" text-anchor="start" dominant-baseline="hanging" style="font-family: Arial, sans-serif; font-size: 12px; fill: rgb(123, 123, 123); font-weight: bold;">plan</text></g></g><g id="visualization"><g id="A22"><g id="circles"><circle id="M" cx="140" cy="42" r="7.5" style="fill: rgb(80, 227, 194);"/><circle id="M" cx="70" cy="42" r="7.5" style="fill: rgb(80, 227, 194);"/><circle id="F" cx="8.79302202405077" cy="46.36174057078864" r="7.5" style="fill: rgb(80, 227, 194);"/><circle id="F" cx="420" cy="42" r="7.5" style="fill: rgb(80, 227, 194);"/><circle id="F" cx="-8.173718910195364" cy="47.43376696755494" r="7.5" style="fill: rgb(80, 227, 194);"/><circle id="M" cx="-0.6193031138554027" cy="32.20449246165646" r="7.5" style="fill: rgb(208, 2, 27);"/></g><g id="labels"><g id="M" transform="translate(140,42)"><text x="0" y="0" text-anchor="middle" dominant-baseline="text-before-edge" transform="translate(0,-5.5)"><tspan x="0" y="0" dy="0" style="font-family: Arial, sans-serif; font-size: 10px; fill: black; font-weight: bold;">M</tspan></text></g><g id="M" transform="translate(70,42)"><text x="0" y="0" text-anchor="middle" dominant-baseline="text-before-edge" transform="translate(0,-5.5)"><tspan x="0" y="0" dy="0" style="font-family: Arial, sans-serif; font-size: 10px; fill: black; font-weight: bold;">M</tspan></text></g><g id="F" transform="translate(8.79302202405077,46.36174057078864)"><text x="0" y="0" text-anchor="middle" dominant-baseline="text-before-edge" transform="translate(0,-5.5)"><tspan x="0" y="0" dy="0" style="font-family: Arial, sans-serif; font-size: 10px; fill: black; font-weight: bold;">F</tspan></text></g><g id="F" transform="translate(420,42)"><text x="0" y="0" text-anchor="middle" dominant-baseline="text-before-edge" transform="translate(0,-5.5)"><tspan x="0" y="0" dy="0" style="font-family: Arial, sans-serif; font-size: 10px; fill: black; font-weight: bold;">F</tspan></text></g><g id="F" transform="translate(-8.173718910195364,47.43376696755494)"><text x="0" y="0" text-anchor="middle" dominant-baseline="text-before-edge" transform="translate(0,-5.5)"><tspan x="0" y="0" dy="0" style="font-family: Arial, sans-serif; font-size: 10px; fill: black; font-weight: bold;">F</tspan></text></g><g id="M" transform="translate(-0.6193031138554027,32.20449246165646)"><text x="0" y="0" text-anchor="middle" dominant-baseline="text-before-edge" transform="translate(0,-5.5)"><tspan x="0" y="0" dy="0" style="font-family: Arial, sans-serif; font-size: 10px; fill: black; font-weight: bold;">M</tspan></text></g></g></g><g id="IN23"><g id="circles"><circle id="M" cx="217.878556678968" cy="133.14771290379983" r="7.5" style="fill: rgb(126, 211, 33);"/><circle id="M" cx="200.93122467706308" cy="131.81057434479516" r="7.5" style="fill: rgb(126, 211, 33);"/><circle id="M" cx="202.12144363663722" cy="114.85228337821512" r="7.5" style="fill: rgb(74, 144, 226);"/><circle id="F" cx="219.06877500733165" cy="116.18942937318965" r="7.5" style="fill: rgb(74, 144, 226);"/></g><g id="labels"><g id="M" transform="translate(217.878556678968,133.14771290379983)"><text x="0" y="0" text-anchor="middle" dominant-baseline="text-before-edge" transform="translate(0,-5.5)"><tspan x="0" y="0" dy="0" style="font-family: Arial, sans-serif; font-size: 10px; fill: black; font-weight: bold;">M</tspan></text></g><g id="M" transform="translate(200.93122467706308,131.81057434479516)"><text x="0" y="0" text-anchor="middle" dominant-baseline="text-before-edge" transform="translate(0,-5.5)"><tspan x="0" y="0" dy="0" style="font-family: Arial, sans-serif; font-size: 10px; fill: black; font-weight: bold;">M</tspan></text></g><g id="M" transform="translate(202.12144363663722,114.85228337821512)"><text x="0" y="0" text-anchor="middle" dominant-baseline="text-before-edge" transform="translate(0,-5.5)"><tspan x="0" y="0" dy="0" style="font-family: Arial, sans-serif; font-size: 10px; fill: black; font-weight: bold;">M</tspan></text></g><g id="F" transform="translate(219.06877500733165,116.18942937318965)"><text x="0" y="0" text-anchor="middle" dominant-baseline="text-before-edge" transform="translate(0,-5.5)"><tspan x="0" y="0" dy="0" style="font-family: Arial, sans-serif; font-size: 10px; fill: black; font-weight: bold;">F</tspan></text></g></g></g><g id="L20"><g id="circles"><circle id="M" cx="201.8367931228973" cy="203.63102269288558" r="7.5" style="fill: rgb(80, 227, 194);"/><circle id="M" cx="60.38361778862271" cy="204.03347761593938" r="7.5" style="fill: rgb(80, 227, 194);"/><circle id="M" cx="73.10520951830392" cy="215.3109171475216" r="7.5" style="fill: rgb(80, 227, 194);"/><circle id="M" cx="76.51117269307339" cy="198.65560523653915" r="7.5" style="fill: rgb(80, 227, 194);"/><circle id="M" cx="140" cy="206" r="7.5" style="fill: rgb(80, 227, 194);"/><circle id="M" cx="420" cy="206" r="7.5" style="fill: rgb(80, 227, 194);"/><circle id="M" cx="218.1632068771027" cy="208.36897730711442" r="7.5" style="fill: rgb(80, 227, 194);"/><circle id="F" cx="280" cy="206" r="7.5" style="fill: rgb(80, 227, 194);"/></g><g id="labels"><g id="M" transform="translate(201.8367931228973,203.63102269288558)"><text x="0" y="0" text-anchor="middle" dominant-baseline="text-before-edge" transform="translate(0,-5.5)"><tspan x="0" y="0" dy="0" style="font-family: Arial, sans-serif; font-size: 10px; fill: black; font-weight: bold;">M</tspan></text></g><g id="M" transform="translate(60.38361778862271,204.03347761593938)"><text x="0" y="0" text-anchor="middle" dominant-baseline="text-before-edge" transform="translate(0,-5.5)"><tspan x="0" y="0" dy="0" style="font-family: Arial, sans-serif; font-size: 10px; fill: black; font-weight: bold;">M</tspan></text></g><g id="M" transform="translate(73.10520951830392,215.3109171475216)"><text x="0" y="0" text-anchor="middle" dominant-baseline="text-before-edge" transform="translate(0,-5.5)"><tspan x="0" y="0" dy="0" style="font-family: Arial, sans-serif; font-size: 10px; fill: black; font-weight: bold;">M</tspan></text></g><g id="M" transform="translate(76.51117269307339,198.65560523653915)"><text x="0" y="0" text-anchor="middle" dominant-baseline="text-before-edge" transform="translate(0,-5.5)"><tspan x="0" y="0" dy="0" style="font-family: Arial, sans-serif; font-size: 10px; fill: black; font-weight: bold;">M</tspan></text></g><g id="M" transform="translate(140,206)"><text x="0" y="0" text-anchor="middle" dominant-baseline="text-before-edge" transform="translate(0,-5.5)"><tspan x="0" y="0" dy="0" style="font-family: Arial, sans-serif; font-size: 10px; fill: black; font-weight: bold;">M</tspan></text></g><g id="M" transform="translate(420,206)"><text x="0" y="0" text-anchor="middle" dominant-baseline="text-before-edge" transform="translate(0,-5.5)"><tspan x="0" y="0" dy="0" style="font-family: Arial, sans-serif; font-size: 10px; fill: black; font-weight: bold;">M</tspan></text></g><g id="M" transform="translate(218.1632068771027,208.36897730711442)"><text x="0" y="0" text-anchor="middle" dominant-baseline="text-before-edge" transform="translate(0,-5.5)"><tspan x="0" y="0" dy="0" style="font-family: Arial, sans-serif; font-size: 10px; fill: black; font-weight: bold;">M</tspan></text></g><g id="F" transform="translate(280,206)"><text x="0" y="0" text-anchor="middle" dominant-baseline="text-before-edge" transform="translate(0,-5.5)"><tspan x="0" y="0" dy="0" style="font-family: Arial, sans-serif; font-size: 10px; fill: black; font-weight: bold;">F</tspan></text></g></g></g><g id="S10-Rev23"><g id="circles"><circle id="M" cx="210" cy="288" r="7.5" style="fill: rgb(80, 227, 194);"/><circle id="M" cx="343.7517013591185" cy="303.8105264010954" r="7.5" style="fill: rgb(80, 227, 194);"/><circle id="M" cx="630" cy="288" r="7.5" style="fill: rgb(80, 227, 194);"/><circle id="M" cx="366.8167349841636" cy="285.50516526241387" r="7.5" style="fill: rgb(80, 227, 194);"/><circle id="M" cx="360.56734489391494" cy="301.31511264469873" r="7.5" style="fill: rgb(80, 227, 194);"/><circle id="M" cx="356.2484211005274" cy="272.1896348301591" r="7.5" style="fill: rgb(80, 227, 194);"/><circle id="M" cx="333.18339533435596" cy="290.49498971896884" r="7.5" style="fill: rgb(80, 227, 194);"/><circle id="M" cx="280" cy="288" r="7.5" style="fill: rgb(80, 227, 194);"/><circle id="M" cx="339.4321726165861" cy="274.684279690399" r="7.5" style="fill: rgb(80, 227, 194);"/><circle id="M" cx="350.00022971133313" cy="288.0002914522652" r="7.5" style="fill: rgb(80, 227, 194);"/></g><g id="labels"><g id="M" transform="translate(210,288)"><text x="0" y="0" text-anchor="middle" dominant-baseline="text-before-edge" transform="translate(0,-5.5)"><tspan x="0" y="0" dy="0" style="font-family: Arial, sans-serif; font-size: 10px; fill: black; font-weight: bold;">M</tspan></text></g><g id="M" transform="translate(343.7517013591185,303.8105264010954)"><text x="0" y="0" text-anchor="middle" dominant-baseline="text-before-edge" transform="translate(0,-5.5)"><tspan x="0" y="0" dy="0" style="font-family: Arial, sans-serif; font-size: 10px; fill: black; font-weight: bold;">M</tspan></text></g><g id="M" transform="translate(630,288)"><text x="0" y="0" text-anchor="middle" dominant-baseline="text-before-edge" transform="translate(0,-5.5)"><tspan x="0" y="0" dy="0" style="font-family: Arial, sans-serif; font-size: 10px; fill: black; font-weight: bold;">M</tspan></text></g><g id="M" transform="translate(366.8167349841636,285.50516526241387)"><text x="0" y="0" text-anchor="middle" dominant-baseline="text-before-edge" transform="translate(0,-5.5)"><tspan x="0" y="0" dy="0" style="font-family: Arial, sans-serif; font-size: 10px; fill: black; font-weight: bold;">M</tspan></text></g><g id="M" transform="translate(360.56734489391494,301.31511264469873)"><text x="0" y="0" text-anchor="middle" dominant-baseline="text-before-edge" transform="translate(0,-5.5)"><tspan x="0" y="0" dy="0" style="font-family: Arial, sans-serif; font-size: 10px; fill: black; font-weight: bold;">M</tspan></text></g><g id="M" transform="translate(356.2484211005274,272.1896348301591)"><text x="0" y="0" text-anchor="middle" dominant-baseline="text-before-edge" transform="translate(0,-5.5)"><tspan x="0" y="0" dy="0" style="font-family: Arial, sans-serif; font-size: 10px; fill: black; font-weight: bold;">M</tspan></text></g><g id="M" transform="translate(333.18339533435596,290.49498971896884)"><text x="0" y="0" text-anchor="middle" dominant-baseline="text-before-edge" transform="translate(0,-5.5)"><tspan x="0" y="0" dy="0" style="font-family: Arial, sans-serif; font-size: 10px; fill: black; font-weight: bold;">M</tspan></text></g><g id="M" transform="translate(280,288)"><text x="0" y="0" text-anchor="middle" dominant-baseline="text-before-edge" transform="translate(0,-5.5)"><tspan x="0" y="0" dy="0" style="font-family: Arial, sans-serif; font-size: 10px; fill: black; font-weight: bold;">M</tspan></text></g><g id="M" transform="translate(339.4321726165861,274.684279690399)"><text x="0" y="0" text-anchor="middle" dominant-baseline="text-before-edge" transform="translate(0,-5.5)"><tspan x="0" y="0" dy="0" style="font-family: Arial, sans-serif; font-size: 10px; fill: black; font-weight: bold;">M</tspan></text></g><g id="M" transform="translate(350.00022971133313,288.0002914522652)"><text x="0" y="0" text-anchor="middle" dominant-baseline="text-before-edge" transform="translate(0,-5.5)"><tspan x="0" y="0" dy="0" style="font-family: Arial, sans-serif; font-size: 10px; fill: black; font-weight: bold;">M</tspan></text></g></g></g></g></g><g id="legend" transform="translate(750,20)"><g transform="translate(5,0)"><g class="legendSize" transform="translate(0,0)"><g class="legendCells" transform="translate(7.5,16)"><g class="cell" transform="translate(0, 7.5)"><circle class="swatch" r="7.5" fill="none" stroke="#ccc"/><text class="label" transform="translate( 12.5,&#10;          5)" font-family="&quot;Arial&quot;, sans-serif" font-size="10px"><tspan x="0" dy="0em">1.0</tspan></text></g><g class="cell" transform="translate(0, 33.5)"><circle class="swatch" r="7.5" fill="none" stroke="#ccc"/><text class="label" transform="translate( 12.5,&#10;          5)" font-family="&quot;Arial&quot;, sans-serif" font-size="10px"><tspan x="0" dy="0em">1.0</tspan></text></g></g><text class="legendTitle" font-family="&quot;Arial&quot;, sans-serif" font-size="12px" font-weight="bold"><tspan x="0" dy="0em">Number of records</tspan></text></g><g class="legendColor" transform="translate(0,90.5)"><g class="legendCells" transform="translate(0,16)"><g class="cell" transform="translate(0, 0)"><rect class="swatch" height="15" width="15" style="fill: rgb(80, 227, 194);"/><text class="label" transform="translate( 20, 12.5)" font-family="&quot;Arial&quot;, sans-serif" font-size="10px"><tspan x="0" dy="0em">Argentina</tspan></text></g><g class="cell" transform="translate(0, 21)"><rect class="swatch" height="15" width="15" style="fill: rgb(208, 2, 27);"/><text class="label" transform="translate( 20, 12.5)" font-family="&quot;Arial&quot;, sans-serif" font-size="10px"><tspan x="0" dy="0em">Estados Unidos</tspan></text></g><g class="cell" transform="translate(0, 42)"><rect class="swatch" height="15" width="15" style="fill: rgb(74, 144, 226);"/><text class="label" transform="translate( 20, 12.5)" font-family="&quot;Arial&quot;, sans-serif" font-size="10px"><tspan x="0" dy="0em">Francia</tspan></text></g><g class="cell" transform="translate(0, 63)"><rect class="swatch" height="15" width="15" style="fill: rgb(126, 211, 33);"/><text class="label" transform="translate( 20, 12.5)" font-family="&quot;Arial&quot;, sans-serif" font-size="10px"><tspan x="0" dy="0em">Portugal</tspan></text></g></g><text class="legendTitle" font-family="&quot;Arial&quot;, sans-serif" font-size="12px" font-weight="bold"><tspan x="0" dy="0em">nacionalidad</tspan></text></g></g></g></svg>